<svg width="18" height="12" viewBox="0 0 18 12" fill="none" xmlns="http://www.w3.org/2000/svg">
<path d="M6.42484 10.3324C6.46095 10.3314 6.49681 10.3293 6.53292 10.3293C8.63263 10.329 10.7326 10.3293 12.8323 10.329C13.0812 10.329 13.3281 10.3035 13.5744 10.2666C14.0693 10.1925 14.536 10.006 15.0107 9.85098C15.1031 9.82081 15.1946 9.78778 15.3128 9.74695C14.9589 9.62887 14.6352 9.51755 14.3095 9.41274C13.8779 9.27386 13.4377 9.18829 12.9861 9.17997C12.9736 9.17893 12.9611 9.17789 12.9485 9.17684C12.5569 9.15344 12.1648 9.168 11.7732 9.16748C10.9451 9.16618 10.1168 9.1693 9.2888 9.1706C9.27315 9.17112 9.25727 9.17138 9.24162 9.1719C9.19276 9.17372 9.14389 9.17554 9.09503 9.17762C9.08251 9.1784 9.06999 9.17945 9.05748 9.18023C8.62829 9.19115 8.20802 9.26137 7.79785 9.39922C7.73141 9.40338 7.67123 9.43095 7.61033 9.45669C6.90433 9.72172 6.21133 10.0239 5.51664 10.3295C5.67527 10.3295 5.83414 10.3295 5.99277 10.3295M6.25466 10.7501C5.13223 10.7496 4.00956 10.7511 2.88714 10.748C2.02877 10.7457 1.29725 10.413 0.714734 9.73004C0.254016 9.19011 0.0101779 8.54354 0.00440084 7.80802C-0.00474611 6.63869 0.003438 5.46883 0.00199375 4.2995C0.000308783 2.97515 0.762394 1.83598 1.92935 1.41673C2.29956 1.28357 2.67964 1.25132 3.06719 1.25288C4.12944 1.25756 5.19193 1.25366 6.25442 1.25314C6.24912 1.37876 6.18293 1.47031 6.1059 1.55379C6.07268 1.58968 6.0231 1.60893 6.01443 1.66745C5.84738 1.66745 5.68057 1.66745 5.51351 1.66745C5.51279 1.67863 5.51207 1.68982 5.51135 1.70074C5.73497 1.78969 5.95883 1.87864 6.18245 1.96759C6.34757 2.04535 6.51462 2.11739 6.68745 2.17331C6.86991 2.25004 7.05309 2.32494 7.23483 2.40375C7.92807 2.70414 8.64875 2.83939 9.39471 2.83626C10.4531 2.83184 11.5117 2.8178 12.5697 2.83991C13.5178 2.85967 14.4044 2.58867 15.301 2.25004C15.1241 2.19022 14.9597 2.1382 14.7974 2.07942C14.1875 1.85939 13.5698 1.67707 12.9204 1.67629C11.1083 1.67369 9.29626 1.67473 7.4842 1.67369C7.13156 1.67343 6.77868 1.67109 6.42604 1.66953C6.45565 1.49501 6.52907 1.36445 6.70454 1.32466C6.77459 1.30879 6.84175 1.27784 6.91011 1.25366C8.25303 1.25392 9.5957 1.25418 10.9386 1.2547C11.5238 1.25496 12.1089 1.2599 12.6936 1.23051C13.1938 1.20528 13.694 1.17121 14.1945 1.16497C14.8444 1.15691 15.4916 1.20086 16.1264 1.37147C16.3202 1.42349 16.5216 1.44664 16.7026 1.54677C16.6543 1.55795 16.6073 1.572 16.5936 1.63286C16.5789 1.69762 16.636 1.70984 16.6661 1.73767C17.295 2.31948 17.6761 3.04407 17.7598 3.94136C17.7752 4.10521 17.7868 4.11484 17.9312 4.0662C17.9541 4.05866 17.9755 4.04643 17.9974 4.03629C17.9981 5.35856 17.9991 6.68056 17.9998 8.00283C17.9495 7.98956 17.899 7.97656 17.8487 7.96251C17.787 7.94535 17.7671 7.96746 17.762 8.03898C17.6982 8.96618 17.3114 9.71236 16.6632 10.31C16.5577 10.4073 16.5606 10.4343 16.6906 10.5028C16.388 10.6526 16.0624 10.7004 15.7376 10.7472C14.4778 10.9288 13.1926 10.7813 11.9275 10.7592C10.7439 10.7384 9.55984 10.7493 8.37651 10.7532C7.88787 10.7532 7.39923 10.753 6.91035 10.753M4.35522 6.19759C4.35907 6.54636 4.37231 6.89513 4.39566 7.24338C4.4491 8.04626 4.4982 8.91624 4.78681 9.6658C4.8364 9.79428 4.89585 9.91704 4.98973 10.0148C5.07687 10.1059 5.16762 10.1384 5.2923 10.077C5.747 9.8528 6.20676 9.64057 6.66386 9.4221C7.05839 9.23354 7.45171 9.04238 7.84551 8.85226C7.91916 8.82105 7.94348 8.75629 7.94348 8.678C7.94372 8.536 7.94131 8.39425 7.94011 8.25225C7.93962 8.14847 7.93938 8.04444 7.9389 7.94067C7.9389 6.93492 7.93914 5.92918 7.93914 4.9237C7.94107 4.40821 7.94011 3.89272 7.94636 3.3775C7.94805 3.24043 7.89654 3.16319 7.78268 3.10961C6.94959 2.71741 6.11721 2.3239 5.28725 1.92389C5.17171 1.86823 5.08746 1.89398 5.00369 1.97383C4.92739 2.04639 4.87371 2.1382 4.8299 2.23625C4.50302 2.96943 4.45825 3.85787 4.40144 4.65815C4.36533 5.17052 4.34969 5.68418 4.35522 6.19759ZM16.4655 4.03733C16.4562 3.84331 16.422 3.65371 16.3784 3.46593C16.3351 3.21391 16.2749 2.96735 16.1461 2.74836C16.0559 2.59491 15.9824 2.56812 15.8238 2.61753C15.255 2.79465 14.6862 2.97229 14.1177 3.14967C13.9489 3.2022 13.9184 3.24512 13.9184 3.4329C13.9188 4.61888 13.9193 5.80486 13.9203 6.99084C13.9203 7.02959 13.9253 7.06809 13.928 7.10684C13.9068 7.62388 13.9229 8.14119 13.9198 8.65824C13.9196 8.7217 13.9472 8.77397 14.0053 8.80102C14.0305 8.83249 14.0664 8.83978 14.1008 8.85044C14.6626 9.02469 15.2242 9.19895 15.786 9.37269C16.0005 9.43901 16.0802 9.40442 16.1813 9.19037C16.2265 9.0944 16.2658 8.99374 16.2954 8.89101C16.4311 8.4213 16.4872 7.93677 16.5214 7.44807C16.5541 7.17732 16.5613 6.90475 16.5695 6.63271C16.5924 5.87092 16.584 5.10992 16.5024 4.35151C16.4978 4.2454 16.4927 4.1398 16.4655 4.03733ZM2.39464 10.2591C2.44688 10.2591 2.48298 10.258 2.51909 10.2593C2.58769 10.2617 2.59828 10.2278 2.58288 10.161C2.31978 9.01091 1.49535 8.30062 0.4928 8.08397C0.413607 8.06681 0.409515 8.0988 0.42829 8.16382C0.485338 8.36226 0.536368 8.56279 0.600397 8.75863C0.710401 9.09518 0.847605 9.41872 1.07339 9.68505C1.43229 10.1082 1.90721 10.225 2.39464 10.2591ZM2.59251 1.8196C2.60021 1.72831 2.55568 1.72311 2.50874 1.72805C2.36576 1.74313 2.22157 1.75302 2.08028 1.77877C1.69803 1.84899 1.34371 1.98683 1.07869 2.3135C0.715938 2.76032 0.566457 3.31352 0.422994 3.86906C0.409274 3.92211 0.434308 3.92888 0.474265 3.91951C0.509409 3.91119 0.545275 3.90677 0.580177 3.89741C1.20482 3.73095 1.74112 3.42301 2.12698 2.83861C2.25335 2.64744 2.36648 2.45134 2.46132 2.24379C2.52439 2.10595 2.55351 1.9499 2.59251 1.8196ZM0.677183 7.45769C0.98144 7.66368 1.26451 7.87279 1.53339 8.10452C1.90937 8.42858 2.2312 8.81741 2.60863 9.14017C3.12496 9.58127 3.69135 9.90898 4.33741 10.0645C4.4077 10.0814 4.47895 10.0923 4.54996 10.1048C4.61615 10.1163 4.68235 10.1451 4.76443 10.1053C4.40962 10.0401 4.08418 9.92354 3.7703 9.76801C3.16612 9.46892 2.6445 9.04342 2.16573 8.55056C1.7611 8.13417 1.32277 7.76589 0.823775 7.48812C0.786225 7.46679 0.750359 7.43272 0.677183 7.45769ZM0.479561 4.67974C0.532999 4.69248 0.57079 4.65347 0.61171 4.6324C1.21854 4.32056 1.74521 3.88804 2.23072 3.38998C2.95453 2.64744 3.77078 2.08254 4.77502 1.88982C4.71219 1.88514 4.64816 1.87552 4.58727 1.8867C4.2546 1.9473 3.93205 2.04535 3.62274 2.1949C3.02145 2.48515 2.51307 2.91533 2.04249 3.40455C1.58755 3.87738 1.09867 4.3021 0.537331 4.62148C0.514945 4.63396 0.482209 4.63786 0.479561 4.67974Z" fill="#5DC774"/>
<path d="M7.17723 11.414C7.21791 11.549 7.25353 11.6858 7.27592 11.8252C7.30047 11.9758 7.26292 12.0111 7.12018 11.9955C6.97046 11.9789 6.83446 11.9022 6.71121 11.8129C6.54368 11.6917 6.38024 11.5274 6.30682 11.3201C6.26999 11.2163 6.25651 11.105 6.25675 10.9942C6.25699 10.9123 6.25579 10.8303 6.25579 10.7484C6.25579 10.7484 6.24616 10.6379 6.16312 10.5073C6.13977 10.4707 6.1039 10.4449 6.07454 10.4153C6.06154 10.4022 6.04541 10.3929 6.03217 10.3804C6.02784 10.3762 6.00642 10.3578 5.99414 10.3281L6.42621 10.331C6.45534 10.5219 6.55379 10.6397 6.73191 10.6813C6.79378 10.6956 6.85203 10.7274 6.91197 10.7513C6.98249 10.8384 7.02582 10.945 7.06121 11.0532C7.09972 11.1724 7.1404 11.2925 7.17723 11.414Z" fill="#5DC774"/>
<path d="M6.01367 1.66723C6.02234 1.60871 6.07192 1.58947 6.10514 1.55358C6.18217 1.47035 6.24836 1.37854 6.25366 1.25292C6.2604 1.10233 6.25101 0.951743 6.27268 0.800374C6.29265 0.659929 6.34826 0.548613 6.4366 0.449261C6.5933 0.273445 6.75939 0.112193 6.98084 0.0378091C7.03765 0.018823 7.09759 0.00503858 7.15656 0.000617154C7.25308 -0.0064051 7.30339 0.046652 7.27956 0.151986C7.19339 0.533529 7.10746 0.915591 6.90911 1.25318C6.84075 1.27737 6.77359 1.30832 6.70354 1.32418C6.52807 1.36398 6.45465 1.49454 6.42504 1.66905L6.01367 1.66723Z" fill="#5DC774"/>
<path d="M16.6904 10.4988C16.5604 10.4304 16.5572 10.4033 16.6629 10.3061C17.3111 9.70839 17.6977 8.96221 17.7618 8.03501C17.7666 7.96349 17.7868 7.94164 17.8484 7.95855C17.8987 7.97259 17.9493 7.98534 17.9996 7.99886C17.9745 8.40563 17.9322 8.80928 17.8012 9.19577C17.5976 9.79604 17.2575 10.2603 16.6904 10.4988Z" fill="#E53535"/>
<path d="M17.998 4.0364C17.9758 4.04654 17.9544 4.05876 17.9318 4.06631C17.7871 4.11468 17.7756 4.10506 17.7604 3.94147C17.6766 3.04444 17.2956 2.31958 16.6666 1.73778C16.6365 1.70995 16.5795 1.69772 16.5942 1.63296C16.6079 1.57236 16.6548 1.55806 16.7032 1.54688C17.3786 1.85325 17.7241 2.43948 17.8921 3.17812C17.9563 3.46031 17.9792 3.74796 17.998 4.0364Z" fill="#E53535"/>
<path d="M2.39535 10.2578C1.90767 10.2237 1.433 10.1069 1.07434 9.68379C0.848553 9.41746 0.711349 9.09392 0.601345 8.75737C0.537316 8.56152 0.486286 8.361 0.429238 8.16256C0.410462 8.09754 0.414554 8.06554 0.493748 8.08271C1.4963 8.29936 2.32073 9.00965 2.58383 10.1597C2.59923 10.2266 2.58864 10.2604 2.52004 10.2581C2.48393 10.2567 2.44783 10.2578 2.39535 10.2578Z" fill="white"/>
<path d="M2.59324 1.8194C2.55425 1.94944 2.52512 2.10575 2.46206 2.24359C2.36722 2.45114 2.25408 2.64724 2.12771 2.8384C1.74185 3.42281 1.20555 3.73075 0.580913 3.8972C0.54601 3.90657 0.510145 3.91099 0.475001 3.91931C0.434803 3.92893 0.41001 3.92191 0.42373 3.86886C0.567193 3.31332 0.716673 2.76038 1.07942 2.31329C1.34444 1.98663 1.69877 1.84879 2.08101 1.77856C2.22255 1.75255 2.36649 1.74293 2.50948 1.72785C2.55641 1.7229 2.60095 1.72811 2.59324 1.8194Z" fill="white"/>
<path d="M0.677734 7.45409C0.75091 7.42913 0.786776 7.4632 0.824326 7.48426C1.32332 7.76229 1.76165 8.13031 2.16628 8.54671C2.64505 9.03956 3.16667 9.4648 3.77085 9.76416C4.08473 9.91969 4.41017 10.0362 4.76498 10.1015C4.68314 10.141 4.6167 10.1124 4.55051 10.101C4.4795 10.0887 4.40801 10.0776 4.33796 10.0607C3.6919 9.90512 3.12551 9.57742 2.60919 9.13632C2.23175 8.81381 1.90993 8.42499 1.53394 8.10066C1.26531 7.86919 0.981991 7.66008 0.677734 7.45409Z" fill="white"/>
<path d="M0.480469 4.68131C0.483357 4.6397 0.515853 4.63554 0.538239 4.6228C1.09981 4.30341 1.58845 3.8787 2.04339 3.40586C2.51398 2.91691 3.02212 2.48673 3.62365 2.19622C3.93296 2.04693 4.25551 1.94888 4.58817 1.88802C4.64907 1.87683 4.7131 1.88646 4.77593 1.89114C3.77145 2.08412 2.95544 2.64876 2.23163 3.3913C1.74612 3.88936 1.21945 4.32188 0.612618 4.63372C0.571457 4.65479 0.533666 4.69406 0.480469 4.68131Z" fill="white"/>
<path d="M9.28937 9.17188C9.27396 9.18904 9.25832 9.19008 9.24219 9.17318C9.25783 9.17266 9.27348 9.17214 9.28937 9.17188Z" fill="#3B6475"/>
</svg>
