<svg width="17" height="25" viewBox="0 0 17 25" fill="none" xmlns="http://www.w3.org/2000/svg">
<path d="M14.7202 24.6053H2.41973C1.37892 24.6053 0.527344 23.8009 0.527344 22.8261V1.77915C0.527344 0.804403 1.37892 0 2.41973 0H14.7202C15.7611 0 16.6126 0.804403 16.6126 1.77915V22.8261C16.6126 23.8103 15.7705 24.6053 14.7202 24.6053Z" fill="#E6E7E8"/>
<path d="M6.92284 5.84375C7.008 5.90999 7.09314 5.95731 7.16883 6.03302C7.60408 6.45888 8.02989 6.89421 8.46514 7.32953C8.59761 7.47148 8.62599 7.59451 8.5503 7.727C8.46514 7.85949 8.30429 7.90681 8.17183 7.82164C8.12452 7.79324 8.08666 7.75539 8.04882 7.71754C7.68926 7.35792 7.3297 7.00777 6.97961 6.64815C6.95123 6.61976 6.92284 6.57244 6.89446 6.52513C6.62006 6.79957 6.37404 7.05509 6.11857 7.30114C5.95772 7.46202 5.80633 7.61344 5.64548 7.77432C5.56032 7.85949 5.45625 7.89734 5.33324 7.85003C5.22916 7.81217 5.15345 7.73646 5.16291 7.6229C5.16291 7.53773 5.19129 7.43363 5.24806 7.37685C5.7117 6.89421 6.18479 6.43049 6.66735 5.95731C6.71466 5.90999 6.78092 5.89107 6.83769 5.85321C6.85661 5.84375 6.89446 5.84375 6.92284 5.84375Z" fill="#383E53"/>
<path d="M11.7753 5.84375C12.0402 5.9857 12.0686 6.17497 11.851 6.39264C11.4063 6.83742 10.9616 7.28221 10.5169 7.71754C10.3276 7.90681 10.1857 7.89734 9.99646 7.71754C9.55175 7.27275 9.10704 6.82796 8.6718 6.39264C8.45417 6.17497 8.492 5.97624 8.76639 5.84375C8.80424 5.84375 8.85155 5.84375 8.8894 5.84375C8.9651 5.90999 9.05025 5.95731 9.12595 6.03302C9.47604 6.37371 9.82614 6.72386 10.1668 7.07401C10.1952 7.1024 10.233 7.1308 10.2614 7.16865C10.6493 6.78064 11.0278 6.4021 11.4063 6.02356C11.4725 5.95731 11.5671 5.90053 11.6428 5.84375C11.6901 5.84375 11.728 5.84375 11.7753 5.84375Z" fill="#383E53"/>
<path d="M12.8829 13.9128C12.8829 15.3986 12.8829 16.8749 12.8829 18.3607C12.8829 18.6824 12.7883 18.7676 12.4666 18.7676C9.86453 18.7676 7.2625 18.7676 4.66047 18.7676C4.33876 18.7676 4.24414 18.6824 4.24414 18.3512C4.24414 15.3797 4.24414 12.4176 4.24414 9.446C4.24414 9.12423 4.3293 9.03906 4.66047 9.03906C7.2625 9.03906 9.874 9.03906 12.476 9.03906C12.7788 9.03906 12.8735 9.1337 12.8735 9.43653C12.8829 10.9318 12.8829 12.427 12.8829 13.9128ZM4.8308 18.1809C7.32876 18.1809 9.81723 18.1809 12.2963 18.1809C12.2963 15.3229 12.2963 12.4743 12.2963 9.6258C9.80777 9.6258 7.31929 9.6258 4.8308 9.6258C4.8308 12.4838 4.8308 15.3323 4.8308 18.1809Z" fill="#383E53"/>
<path d="M11.2373 15.2984C11.2373 15.8757 11.2373 16.453 11.2373 17.0303C11.2373 17.3142 11.1427 17.4183 10.8494 17.4183C10.433 17.4183 10.0262 17.4183 9.60986 17.4183C9.36385 17.4183 9.2503 17.3142 9.2503 17.0681C9.2503 15.8946 9.24084 14.7212 9.2503 13.5477C9.25976 12.819 9.89372 12.3458 10.5655 12.5729C10.9724 12.7054 11.2278 13.0934 11.2278 13.5761C11.2373 14.1439 11.2373 14.7212 11.2373 15.2984ZM10.6601 16.841C10.6601 16.7842 10.6601 16.7464 10.6601 16.699C10.6601 15.6675 10.6601 14.6265 10.6601 13.595C10.6601 13.5477 10.6601 13.5004 10.6601 13.453C10.6317 13.2638 10.4993 13.1218 10.3195 13.0934C10.1303 13.065 9.95049 13.1597 9.87479 13.33C9.8464 13.3963 9.83693 13.472 9.83693 13.5477C9.83693 14.6171 9.83693 15.677 9.83693 16.7464C9.83693 16.7748 9.84641 16.8126 9.84641 16.841C10.1113 16.841 10.3857 16.841 10.6601 16.841Z" fill="#383E53"/>
<path d="M5.89033 15.2808C5.89033 14.6562 5.87141 14.0222 5.89033 13.3976C5.90925 12.9149 6.35396 12.5174 6.85544 12.508C7.34746 12.4985 7.78272 12.8771 7.83949 13.3597C7.84895 13.4543 7.8584 13.549 7.8584 13.6531C7.8584 14.7698 7.8584 15.8959 7.8584 17.0126C7.8584 17.3249 7.76379 17.4196 7.45154 17.4196C7.04468 17.4196 6.64728 17.4196 6.24042 17.4196C5.98495 17.4196 5.88086 17.3155 5.88086 17.06C5.88086 16.4638 5.88086 15.877 5.88086 15.2808C5.88086 15.2808 5.88087 15.2808 5.89033 15.2808ZM7.28124 16.8423C7.28124 16.7855 7.28124 16.7382 7.28124 16.6909C7.28124 16.0095 7.28124 15.3281 7.28124 14.6468C7.28124 14.2682 7.28124 13.8802 7.28124 13.5017C7.28124 13.2272 7.05413 13.0474 6.7892 13.0947C6.5905 13.1326 6.45804 13.3029 6.44858 13.549C6.44858 14.6089 6.44858 15.6783 6.44858 16.7382C6.44858 16.7666 6.45802 16.8044 6.45802 16.8423C6.73242 16.8423 6.99738 16.8423 7.28124 16.8423Z" fill="#383E53"/>
<path d="M6.88412 10.4062C7.42345 10.4062 7.87763 10.8605 7.86817 11.3905C7.86817 11.9299 7.40451 12.3841 6.87465 12.3747C6.33532 12.3652 5.90009 11.9299 5.89062 11.3905C5.89062 10.8605 6.34479 10.4062 6.88412 10.4062ZM6.89359 11.8069C7.12067 11.8069 7.30044 11.6176 7.30044 11.3999C7.30044 11.1728 7.1112 10.9835 6.88412 10.9835C6.66649 10.9835 6.47726 11.1728 6.47726 11.3999C6.4678 11.6176 6.65704 11.8069 6.89359 11.8069Z" fill="#383E53"/>
<path d="M10.2709 10.4062C10.8197 10.4062 11.2643 10.8605 11.2549 11.3999C11.2454 11.9393 10.8102 12.3747 10.2709 12.3841C9.73153 12.3841 9.27734 11.9299 9.27734 11.3999C9.27734 10.851 9.73153 10.4062 10.2709 10.4062ZM10.2519 11.8069C10.479 11.8163 10.6777 11.6365 10.6777 11.3999C10.6872 11.1823 10.4979 10.993 10.2803 10.9741C10.0627 10.9646 9.864 11.1444 9.85454 11.3715C9.84507 11.6081 10.0248 11.7974 10.2519 11.8069Z" fill="#383E53"/>
</svg>
